# xmcd
#
# Track frame offsets: 
#        150
#        8090
#        24200
#        45128
#        66178
#        89882
#        108709
#        124723
#        144406
#        163278
#        181437
#        200986
#
# Disc length: 2937 seconds
#
# Revision: 0
# Processed by: cddbd v1.5.2PL0 Copyright (c) Steve Scherf et al.
# Submitted via: ExactAudioCopyFreeDBPlugin 1.0
#
DISCID=a80b770c
DTITLE=志方あきこ - Turaida
DYEAR=2013
DGENRE=Vocal
TTITLE0=時に埋もれた言葉
TTITLE1=Arcadia
TTITLE2=光降る場所で～Promesse～
TTITLE3=アラベスク
TTITLE4=化石の楽園
TTITLE5=翅亡キ花
TTITLE6=Buonanotte
TTITLE7=ひらいてさんぜ
TTITLE8=萼―utena―
TTITLE9=祈りの果てのひとふりの
TTITLE10=刻限のロンド
TTITLE11=Leyre
EXTD=
EXTT0=
EXTT1=
EXTT2=
EXTT3=
EXTT4=
EXTT5=
EXTT6=
EXTT7=
EXTT8=
EXTT9=
EXTT10=
EXTT11=
PLAYORDER=
